<svg width="1500" height="690" viewBox="0 0 1500 690" fill="none" xmlns="http://www.w3.org/2000/svg">
<path d="M257.133 687.868C227.171 686.953 193.014 686.053 181.228 685.868C162.908 685.58 160.391 685.057 163.883 682.263C168.804 678.326 167.839 669.773 162.342 668.615C159.228 667.959 158.396 669.538 158.396 676.102C158.396 684.164 158.133 684.403 149.884 683.831C145.203 683.506 121.972 681.963 98.2606 680.402C49.4236 677.186 2.55424 672.308 0.667928 670.245C-1.38689 667.996 1.52822 662.064 6.28454 658.814C12.9465 654.262 158.396 657.635 158.396 662.341C158.396 666.895 162.994 666.526 166.21 661.714C168.298 658.59 171.08 658.13 179.512 659.513C185.376 660.475 190.173 662.253 190.173 663.464C190.173 666.382 196.392 666.306 197.361 663.376C199.638 656.486 967.076 653.848 1223.51 659.848L1293.3 661.482V672.265C1293.3 681.585 1293.95 683.048 1298.1 683.048C1302.5 683.048 1302.77 682.121 1301.37 671.873L1299.83 660.698H1312.6H1325.36L1323.83 671.873C1322.43 682.09 1322.7 683.048 1327.04 683.048C1331.22 683.048 1331.74 681.707 1331.35 671.994C1331.11 665.914 1331.39 660.482 1331.97 659.922C1332.55 659.362 1368.35 658.213 1411.52 657.369C1488.12 655.871 1490.14 655.955 1494.94 660.846C1505.26 671.364 1504.05 671.789 1449.92 676.648C1387.31 682.268 1330.97 685.295 1238.83 687.989C1148.08 690.643 344.735 690.544 257.133 687.868ZM194.713 679.526C194.713 677.589 195.333 674.237 196.091 672.076C197.078 669.26 196.115 668.148 192.686 668.148C188.885 668.148 187.903 669.677 187.903 675.598C187.903 680.565 189.038 683.048 191.308 683.048C193.181 683.048 194.713 681.463 194.713 679.526ZM77.8174 653.111C50.3528 652.167 26.0941 651.253 23.9093 651.08C20.4628 650.807 19.9371 647.992 19.9371 629.809V608.853L29.5838 607.469C42.0406 605.681 145.758 598.616 159.538 598.616H170.074L165.37 605.159C162.782 608.758 160.666 613.227 160.666 615.092C160.666 616.956 159.644 618.482 158.396 618.482C157.148 618.482 156.126 619.6 156.126 620.965C156.126 626.799 164.335 622.718 167.475 615.324C169.92 609.568 172.654 607.084 177.173 606.516C182.523 605.843 183.972 607.052 186.85 614.587C188.711 619.461 191.752 623.449 193.608 623.449C195.464 623.449 196.983 622.845 196.983 622.108C196.983 618.319 187.447 601.067 184.282 599.129C180.526 596.829 193.637 595.952 303.664 591.142C386.583 587.517 556.161 583.76 637.894 583.736L709.961 583.715V606.065V628.415H716.771H723.58V599.465V570.514L587.959 572.208C361.008 575.041 167.822 583.477 38.3463 596.208C15.1782 598.486 8.13802 598.208 11.047 595.131C12.9975 593.069 53.6687 588.705 57.1852 590.182C59.2017 591.028 62.1154 590.592 63.66 589.213C65.2047 587.834 76.6826 585.972 89.1665 585.075C101.651 584.179 119.015 582.365 127.753 581.045C136.492 579.725 152.835 578.224 164.07 577.71C175.306 577.196 196.245 575.506 210.602 573.954C224.958 572.402 242.067 571.857 248.621 572.743C255.991 573.74 260.538 573.413 260.538 571.886C260.538 568.026 334.707 565.057 338.779 568.754C341.993 571.673 351.291 570.104 353.6 566.253C355.57 562.968 448.932 560.291 448.932 563.52C448.932 565.145 452.764 566.332 458.012 566.332C464.569 566.332 467.091 565.297 467.091 562.607C467.091 559.454 472.581 558.88 502.84 558.871C522.502 558.866 550.081 558.135 564.125 557.25C586.953 555.811 589.661 556.075 589.661 559.744C589.661 562.953 591.889 563.849 599.875 563.849C607.441 563.849 610.089 562.883 610.089 560.124C610.089 556.978 616.092 556.322 648.676 555.902C669.899 555.629 691.093 555.35 695.774 555.281C702.915 555.177 704.403 556.057 705.012 560.745C705.621 565.434 707.141 566.332 714.478 566.332C722.26 566.332 723.377 565.549 724.652 559.194C726.341 550.784 733.406 542.932 742.784 539.044C748.132 536.827 751.466 537.077 759.104 540.269C767.124 543.619 769.338 546.095 772.553 555.306C776.173 565.675 776.916 566.332 785.016 566.332C792.219 566.332 793.747 565.418 794.354 560.745L795.079 555.157L839.341 556.102C873.717 556.835 884.008 557.805 885.417 560.447C888.035 565.353 907.435 565.091 907.435 560.15C907.435 556.928 915.134 556.646 967.018 557.961C1013.69 559.145 1027.15 560.216 1029.12 562.902C1032.16 567.039 1048.16 567.54 1048.16 563.499C1048.16 560.229 1141.51 562.894 1143.49 566.22C1145.8 570.108 1155.09 571.684 1158.34 568.737C1162.31 565.131 1233.53 567.946 1235.7 571.795C1236.49 573.183 1242.49 573.586 1249.86 572.745C1256.9 571.942 1273.9 572.436 1287.63 573.844C1301.36 575.253 1322.76 576.916 1335.18 577.541C1347.59 578.167 1363.39 579.817 1370.27 581.209C1377.15 582.601 1393.35 584.265 1406.26 584.908C1419.18 585.55 1430.94 586.886 1432.41 587.876C1433.87 588.866 1441.22 589.863 1448.74 590.092C1469.45 590.722 1488.51 593.917 1488.51 596.76C1488.51 598.36 1484.1 598.738 1476.59 597.783C1464.24 596.211 1352.44 587.568 1312.6 585.105C1200.9 578.198 1082.07 574.383 911.407 572.223L775.786 570.507V599.461V628.415H782.595H789.405V606.065V583.715L859.201 583.745C985.465 583.799 1305.19 593.405 1308.7 597.25C1309.19 597.78 1307.37 599.507 1304.67 601.09C1301.97 602.672 1298.71 607.233 1297.44 611.224C1296.17 615.216 1294.21 618.482 1293.08 618.482C1291.96 618.482 1291.03 620.158 1291.03 622.207C1291.03 624.255 1293 625.932 1295.39 625.932C1298.39 625.932 1300.22 623.603 1301.25 618.461C1304.27 603.427 1318.43 602.705 1322.85 617.359C1325.2 625.158 1331.89 629.572 1331.89 623.325C1331.89 618.507 1324.63 604.863 1319.73 600.456C1314.94 596.153 1315 596.106 1323.95 597.257C1328.94 597.899 1345.28 599.033 1360.26 599.776C1396.66 601.582 1457.8 605.918 1469.78 607.544L1479.43 608.853V629.577V650.301L1458.43 651.703C1446.89 652.474 1413.74 653.765 1384.79 654.571L1332.14 656.037L1331.45 643.042C1330.46 624.526 1325.08 623.531 1325.08 641.866V655.731H1312.6H1300.11V642.073C1300.11 631.588 1299.32 628.415 1296.71 628.415C1294.08 628.415 1293.3 631.633 1293.3 642.479V656.543L1167.33 654.896L915.379 651.6L789.405 649.952V640.425C789.405 631.646 788.906 630.898 783.049 630.898C774.984 630.898 771.246 634.987 771.246 643.811V650.765H749.683H728.12V643.811C728.12 634.987 724.382 630.898 716.317 630.898C710.448 630.898 709.961 631.636 709.961 640.532V650.165L544.832 652.327C454.011 653.516 338.336 654.49 287.775 654.49H195.848L196.165 641.452C196.4 631.812 195.661 628.415 193.328 628.415C191.017 628.415 190.173 632.069 190.173 642.073V655.731H177.689H165.205V642.073C165.205 631.588 164.414 628.415 161.801 628.415C159.187 628.415 158.396 631.588 158.396 642.073V655.731L143.075 655.279C134.648 655.031 105.282 654.055 77.8174 653.111V653.111ZM13.4817 602.367C16.6658 598.883 208.057 585.859 321.823 581.384C467.364 575.659 709.961 572.306 709.961 576.02C709.961 577.878 699.274 578.764 676.481 578.796C610.267 578.888 378.419 583.661 317.283 586.19C236.343 589.538 133.537 595.299 72.3504 599.916C19.664 603.891 11.7886 604.219 13.4817 602.367ZM1440.84 600.954C1330.77 591.086 1120.18 582.754 907.435 579.849C843.143 578.971 790.114 577.806 789.594 577.259C789.073 576.713 789.256 575.601 789.998 574.789C791.78 572.84 1105.37 578.07 1180.95 581.309C1291.79 586.059 1445.31 596.348 1474.89 601.009L1487.37 602.977L1474.89 602.932C1468.02 602.908 1452.7 602.017 1440.84 600.954V600.954ZM19.9371 586.503C19.9371 582.518 25.4992 579.446 35.8258 577.728C41.4436 576.793 48.3383 575.402 51.1471 574.636C55.4066 573.475 56.2542 574.26 56.2542 579.368C56.2542 585.04 55.2256 585.609 42.3025 587.087C23.7997 589.203 19.9371 589.102 19.9371 586.503ZM1457.87 587.008C1443.77 585.085 1440.84 583.654 1440.84 578.702C1440.84 572.353 1443.07 572.444 1476.59 580.153C1479.4 580.799 1481.7 582.982 1481.7 585.005C1481.7 588.696 1474.6 589.293 1457.87 587.008ZM65.3334 578.007C65.3334 572.31 66.4742 571.718 82.4499 569.118C107.014 565.121 108.46 565.3 108.46 572.344C108.46 579.078 106.339 579.854 80.6547 582.521C65.5008 584.094 65.3334 584.045 65.3334 578.007ZM1423.82 582.462C1422.57 581.987 1413.63 580.863 1403.96 579.962L1386.37 578.326V570.89C1386.37 564.118 1386.92 563.571 1392.61 564.761C1396.04 565.479 1403.45 566.745 1409.06 567.574C1430.42 570.726 1431.76 571.326 1431.76 577.705C1431.76 583.268 1429.5 584.621 1423.82 582.462ZM119.809 571.664C119.809 565.562 120.918 563.997 126.051 562.854C130.953 561.762 168.622 556.4 171.388 556.4C171.733 556.4 172.015 560.178 172.015 564.796V573.192L149.884 574.888C137.712 575.822 125.966 577.147 123.781 577.835C120.63 578.826 119.809 577.551 119.809 571.664ZM21.072 574.242C22.3206 572.832 36.6203 568.821 52.8495 565.329C69.0788 561.836 87.4642 557.875 93.7061 556.526L105.055 554.072L92.5712 555.396C80.6713 556.658 30.7392 567.095 21.8706 570.174C16.5349 572.027 16.3498 567.265 21.6383 564.223C26.0656 561.676 78.6083 551.098 115.268 545.373C359.513 507.227 745.496 495.354 1086.75 515.491C1226.64 523.745 1338.38 535.665 1423.82 551.446C1476.02 561.089 1485.65 563.568 1487.11 567.737C1487.8 569.696 1487.32 571.299 1486.03 571.299C1484.75 571.299 1484.33 572.417 1485.1 573.783C1487.15 577.413 1482.63 576.943 1448.15 569.946C1327.61 545.485 1133.05 531.18 869.415 527.395C778.346 526.088 757.626 525.175 757.626 522.47C757.626 519.758 774.986 519.076 852.391 518.745L947.156 518.339L849.093 516.091C790.549 514.749 712.341 514.75 655.024 516.092L559.017 518.341L650.377 518.746C729.909 519.098 741.737 519.632 741.737 522.875C741.737 526.087 733.848 526.602 684.425 526.619C619.081 526.64 482.298 530.295 403.535 534.122C260.261 541.084 147.517 552.475 67.6021 568.061C23.2715 576.706 18.3054 577.366 21.0709 574.242H21.072ZM1481.43 570.181C1479.9 568.507 1423.91 556.362 1418.99 556.637C1416.65 556.768 1428.02 559.952 1444.25 563.713C1474.03 570.615 1483.3 572.228 1481.43 570.181ZM1397.72 552.563C1388.35 550.797 1373.54 548.743 1364.8 547.998C1352.98 546.989 1355.59 547.807 1375.02 551.191C1389.37 553.693 1404.18 555.747 1407.93 555.757C1411.67 555.767 1407.08 554.329 1397.72 552.563ZM136.833 550.116L157.261 546.742L140.237 548.067C130.874 548.796 119.128 550.282 114.134 551.369C99.1188 554.637 114.639 553.781 136.833 550.116ZM226.275 540.242C260.724 536.819 300.146 532.972 313.878 531.693L338.846 529.367L312.743 530.507C284.129 531.757 160.113 543.76 158.589 545.427C157.102 547.053 159.853 546.843 226.275 540.242ZM1343.81 544.714C1341 544.122 1336.4 544.122 1333.59 544.714C1330.78 545.306 1333.08 545.79 1338.7 545.79C1344.32 545.79 1346.62 545.306 1343.81 544.714ZM1314.87 541.383C1307.38 540.311 1291.03 538.864 1278.55 538.167L1255.85 536.901L1281.95 540.077C1311.9 543.72 1338.6 544.78 1314.87 541.383ZM1249.65 534.759C1246.24 534.192 1240.11 534.181 1236.03 534.732C1231.95 535.285 1234.74 535.749 1242.23 535.762C1249.72 535.778 1253.06 535.324 1249.65 534.758V534.759ZM1221.24 532.253C1217.18 531.703 1210.54 531.703 1206.48 532.253C1202.43 532.804 1205.75 533.255 1213.86 533.255C1221.97 533.255 1225.29 532.804 1221.24 532.253ZM1190.54 529.754C1185.83 529.217 1178.68 529.226 1174.66 529.775C1170.63 530.324 1174.48 530.764 1183.22 530.753C1191.96 530.742 1195.25 530.293 1190.54 529.755V529.754ZM367.786 527.265C362.481 526.742 353.799 526.742 348.493 527.265C343.187 527.788 347.528 528.216 358.14 528.216C368.751 528.216 373.092 527.788 367.786 527.265ZM1156.55 527.275C1151.87 526.74 1144.21 526.74 1139.52 527.275C1134.84 527.811 1138.67 528.25 1148.04 528.25C1157.4 528.25 1161.23 527.811 1156.55 527.275ZM409.778 524.776C403.848 524.264 394.145 524.264 388.215 524.776C382.285 525.288 387.137 525.706 398.996 525.706C410.856 525.706 415.708 525.288 409.778 524.776ZM1118.04 524.778C1112.15 524.269 1101.93 524.263 1095.34 524.765C1088.74 525.268 1093.56 525.685 1106.04 525.692C1118.53 525.7 1123.92 525.287 1118.04 524.777V524.778ZM461.983 522.282C454.805 521.789 443.059 521.789 435.881 522.282C428.702 522.775 434.576 523.178 448.932 523.178C463.289 523.178 469.162 522.775 461.983 522.282ZM1068.02 522.282C1060.85 521.789 1049.1 521.789 1041.92 522.282C1034.74 522.775 1040.62 523.178 1054.97 523.178C1069.33 523.178 1075.2 522.775 1068.02 522.282ZM538.023 519.786C527.723 519.326 510.87 519.326 500.57 519.786C490.271 520.247 498.698 520.623 519.297 520.623C539.895 520.623 548.322 520.247 538.023 519.786ZM1005.6 519.786C995.305 519.326 978.452 519.326 968.152 519.786C957.853 520.247 966.28 520.623 986.879 520.623C1007.48 520.623 1015.9 520.247 1005.6 519.786ZM1339.83 573.987C1326.32 572.552 1326.21 572.48 1325.48 564.127L1324.75 555.712L1335.7 557.233C1341.72 558.069 1353.54 559.496 1361.97 560.403C1376.96 562.018 1377.29 562.204 1377.29 569.16C1377.29 576.131 1377.06 576.259 1365.37 575.849C1358.82 575.62 1347.33 574.781 1339.83 573.987ZM183.766 563.538C184.583 554.194 182.474 554.802 229.328 550.397L246.919 548.743V557.256C246.919 565.395 246.494 565.832 237.272 567.182C231.966 567.959 217.592 569.342 205.33 570.256L183.034 571.918L183.766 563.538ZM1294.44 569.848C1291.94 569.422 1280.96 568.356 1270.04 567.48L1250.18 565.888V557.076V548.265L1267.77 549.903C1312.79 554.095 1310.93 553.545 1311.92 562.902C1312.78 570.879 1312.47 571.283 1305.9 570.962C1302.09 570.776 1296.94 570.275 1294.44 569.848ZM260.954 557.267L261.673 547.709L283.236 546.027C295.095 545.102 312.204 543.719 321.255 542.954L337.711 541.564V551.188V560.813L307.636 562.433C291.095 563.324 273.663 564.677 268.899 565.44L260.237 566.826L260.954 557.267ZM1196.27 562.925L1159.38 560.704V551.013V541.322L1180.38 542.941C1237.16 547.319 1235.34 546.93 1236.17 554.84C1236.58 558.763 1236.07 562.686 1235.03 563.559C1234 564.432 1216.56 564.146 1196.27 562.925ZM353.6 550.39V541.896L367.786 540.529C375.589 539.777 397.039 538.477 415.453 537.64L448.932 536.118V545.871V555.625L414.524 557.254C395.6 558.15 374.15 558.883 366.858 558.883H353.6V550.39ZM1072.56 557.03L1048.16 556.232V546.1V535.968L1085.05 537.576C1105.33 538.461 1126.78 539.81 1132.71 540.575C1143.22 541.931 1143.5 542.185 1143.5 550.425V558.883L1120.23 558.356C1107.43 558.066 1085.98 557.469 1072.56 557.03ZM468.03 554.124C467.513 553.555 467.091 549.52 467.091 545.157C467.091 537.443 467.418 537.183 479.007 535.66C485.561 534.798 513.14 534.084 540.292 534.072L589.661 534.051V542.742C589.661 551.076 589.311 551.446 581.149 551.738C523.396 553.797 468.779 554.95 468.03 554.124V554.124ZM24.9922 504.872L25.5076 455.826L26.1762 503.664L26.8447 551.501L33.0376 549.876C41.4537 547.668 41.2614 548.095 40.6232 533.022C40.3065 525.539 41.1244 518.93 42.481 518.013C44.085 516.929 44.9051 520.903 44.9051 529.765C44.9051 537.13 45.4099 543.708 46.027 544.383C46.6441 545.058 50.2191 545.118 53.9714 544.516C60.738 543.429 60.7938 543.29 60.7938 527.56C60.7938 509.296 65.1936 505.577 65.6018 523.496C65.7495 529.984 65.7495 536.13 65.6018 537.155C65.4541 538.179 68.9086 539.017 73.2778 539.017H81.2222V522.694C81.2222 508.483 81.7365 506.479 85.1943 507.209C88.3186 507.869 89.1981 510.691 89.3143 520.428C89.4571 532.431 89.6651 532.809 96.1237 532.809C102.672 532.809 102.797 532.556 103.481 517.969C104.107 504.618 106.28 499.434 111.297 499.322C112.233 499.301 113 505.989 113 514.184V529.084H120.944H128.888V514.681C128.888 500.526 131.449 494.318 137.287 494.318C139.377 494.318 140.237 498.621 140.237 509.071C140.237 517.185 141.009 524.346 141.953 524.984C142.896 525.622 146.471 525.558 149.897 524.841C155.901 523.585 156.126 522.975 156.126 507.952C156.126 496.03 156.97 492.011 159.716 490.858C168.564 487.144 169.745 488.868 169.745 505.493C169.745 522.777 170.538 523.663 182.796 520.069C187.466 518.7 187.903 517.105 187.903 501.478V484.384H195.848H203.792V500.683V516.982L211.169 516.204L218.546 515.426L219.213 497.422L219.88 479.418H228.859H237.839V495.709V512.001L246.351 511.23L254.863 510.459L255.53 492.455L256.197 474.451H262.721C266.309 474.451 270.861 473.773 272.836 472.944C275.916 471.651 276.426 474.122 276.426 490.327C276.426 510.626 276.953 511.325 289.478 507.652C294.189 506.271 294.585 504.735 294.585 487.82V469.485L301.962 469.451C306.019 469.432 311.637 468.743 314.446 467.919C319.415 466.463 319.553 466.934 319.553 485.337V504.251H328.632H337.711V484.384V464.518L343.953 464.491C347.387 464.475 354.026 463.771 358.707 462.924L367.219 461.385V481.576V501.768H376.298H385.377V480.66C385.377 460.432 385.59 459.551 390.485 459.53C393.293 459.517 400.954 458.804 407.508 457.942L419.425 456.376V477.973V499.57L429.071 498.806L438.718 498.043L439.369 476.658L440.021 455.273L453.889 453.687C461.516 452.815 471.182 452.102 475.368 452.102H482.98V474.717C482.98 494.319 483.458 497.132 486.57 495.825C488.545 494.996 492.63 494.318 495.649 494.318C501.048 494.318 501.138 493.951 501.138 471.968V449.618L508.515 449.6C512.572 449.589 522.786 448.87 531.213 447.999L546.534 446.416V470.367V494.317H556.666H566.798L567.448 470.105L568.097 445.893L594.768 445.193L621.438 444.493V468.163V491.834H631.652H641.867V467.142V442.451L670.244 441.689L698.62 440.926V465.138V489.35H709.969H721.318V464.517V439.684H749.691H778.064V464.517V489.35H789.413H800.762V465.759V442.168H829.134H857.507V467.001V491.834H867.721H877.936V468.242V444.651L889.852 444.669C896.406 444.68 908.663 445.399 917.09 446.27L932.411 447.853V471.086V494.318H942.625H952.84V471.968V449.618H965.007C971.699 449.618 981.913 450.329 987.705 451.198L998.236 452.777V473.286V493.796L1007.32 494.743L1016.39 495.691V475.138V454.585H1027.43C1033.49 454.585 1043.16 455.29 1048.9 456.151L1059.35 457.717L1060 477.88L1060.66 498.043L1070.3 498.806L1079.95 499.57V479.561C1079.95 456.892 1078.54 458.067 1102.08 461.161L1114 462.727V482.247V501.768H1123.08H1132.16V482.818V463.868L1140.67 465.408C1145.35 466.254 1151.99 466.959 1155.42 466.974L1161.66 467.001V485.626V504.251H1170.74H1179.82V486.578C1179.82 469.463 1179.98 468.953 1184.93 470.403C1187.74 471.226 1193.36 471.915 1197.41 471.934L1204.79 471.968V489.061C1204.79 504.689 1205.23 506.283 1209.9 507.652C1222.22 511.266 1222.95 510.422 1222.95 492.437V475.657L1233.16 476.546L1243.38 477.435V494.568V511.701H1252.46H1261.54V496.115V480.528L1270.52 481.465L1279.5 482.402L1280.16 498.914L1280.83 515.426L1288.21 516.204L1295.58 516.982V501.925V486.868H1303.53H1311.47V502.72C1311.47 517.059 1311.96 518.714 1316.58 520.069C1328.71 523.626 1329.63 522.676 1329.63 506.569C1329.63 491.6 1329.67 491.509 1335.87 492.29C1341.84 493.042 1342.14 493.745 1342.78 508.331C1343.43 523.134 1343.65 523.618 1350.17 524.666C1353.87 525.259 1357.4 525.192 1358.02 524.517C1358.63 523.842 1359.14 517.252 1359.14 509.872C1359.14 497.379 1359.49 496.51 1364.24 497.249C1368.83 497.962 1369.42 499.623 1370.03 513.563L1370.7 529.084H1378.13C1385.51 529.084 1385.57 528.99 1386.11 516.105C1386.72 501.425 1387.08 500.581 1391.95 502.624C1394.52 503.704 1395.45 507.737 1395.45 517.784C1395.45 530.381 1395.92 531.599 1401.23 533.06C1408.96 535.181 1409.98 533.546 1409.98 519.068C1409.98 508.846 1410.68 506.734 1414.07 506.734C1417.58 506.734 1418.15 508.987 1418.15 522.875V539.017H1425.76H1433.37L1433.24 526.15C1433.16 518.202 1434.15 512.901 1435.84 512.285C1437.79 511.574 1438.58 515.919 1438.58 527.353C1438.58 543.313 1438.63 543.427 1445.4 544.515C1449.15 545.118 1452.73 545.058 1453.35 544.383C1453.96 543.708 1454.47 537.196 1454.47 529.912C1454.47 522.627 1455.49 516.667 1456.74 516.667C1458.02 516.667 1459.01 523.703 1459.01 532.809C1459.01 545.088 1459.78 548.95 1462.23 548.95C1464 548.95 1467.04 549.619 1468.99 550.437C1472.11 551.746 1472.61 546.198 1473.2 503.875L1473.87 455.826L1474.38 504.872C1474.75 539.596 1474.16 553.917 1472.37 553.917C1470.98 553.917 1459.49 551.252 1446.83 547.995C1397.02 535.171 1367.58 529.928 1366.44 533.676C1365.27 537.507 1361.25 537.35 1361.97 533.501C1362.33 531.594 1358.33 529.866 1351.19 528.846C1342.33 527.579 1339.22 528.075 1337.01 531.112C1334.43 534.64 1334.17 534.64 1334.17 531.11C1334.17 528.741 1331.4 526.615 1327.08 525.669C1316.48 523.352 1306.93 523.793 1306.93 526.601C1306.93 527.966 1305.4 529.084 1303.53 529.084C1301.65 529.084 1300.12 527.554 1300.12 525.684C1300.12 523.684 1296.62 521.65 1291.61 520.744C1278.4 518.356 1275.15 518.829 1275.15 523.141C1275.15 525.76 1273.92 526.614 1271.56 525.625C1269.59 524.796 1267.55 524.117 1267.02 524.117C1266.5 524.117 1266.07 522.441 1266.07 520.392C1266.07 517.75 1263.6 516.657 1257.56 516.633C1252.88 516.615 1246.75 515.926 1243.94 515.102C1240.19 514.001 1238.84 514.668 1238.84 517.619C1238.84 520.246 1236.87 521.634 1233.16 521.634C1229.86 521.634 1227.49 520.206 1227.49 518.219C1227.49 514.672 1218.05 511.701 1206.78 511.701C1202.34 511.701 1200.25 512.958 1200.25 515.623C1200.25 518.75 1198.75 519.192 1192.87 517.804C1188.82 516.846 1184.68 514.523 1183.68 512.64C1181.55 508.628 1157.12 507.764 1157.12 511.701C1157.12 513.067 1152.53 514.184 1146.91 514.184C1139.34 514.184 1136.69 513.218 1136.69 510.459C1136.69 507.71 1134.07 506.734 1126.67 506.734C1121.15 506.734 1115.02 506.056 1113.05 505.227C1110.69 504.238 1109.46 505.091 1109.46 507.71C1109.46 510.892 1106.93 511.701 1096.97 511.701C1087.39 511.701 1084.49 510.835 1084.49 507.976C1084.49 505.401 1082.12 504.251 1076.83 504.251C1072.61 504.251 1065.98 503.552 1062.07 502.699C1056.27 501.428 1054.98 501.944 1054.98 505.542C1054.98 509.468 1053.28 509.782 1039.06 508.477C1029.2 507.573 1021.79 505.545 1019.6 503.151C1014.49 497.557 991.427 497.704 991.427 503.33C991.427 506.858 989.321 507.151 974.97 505.621C965.919 504.656 958.174 502.835 957.758 501.575C956.649 498.219 925.602 498.651 925.602 502.022C925.602 506.042 886.555 503.982 885.31 499.897C884.152 496.096 852.968 495.505 852.968 499.284C852.968 500.782 843.51 501.767 829.134 501.767C809.463 501.767 805.302 501.117 805.302 498.042C805.302 495.089 802.038 494.318 789.547 494.318C780.882 494.318 773.161 495.435 772.389 496.801C771.615 498.171 761.439 499.284 749.691 499.284C737.943 499.284 727.767 498.171 726.993 496.801C725.279 493.767 694.762 493.459 693.702 496.464C692.626 499.517 649.11 502.047 647.475 499.152C645.517 495.686 614.637 496.136 614.637 499.63C614.637 501.702 604.928 501.983 578.32 500.678C552.87 499.431 542.003 499.699 542.003 501.575C542.003 503.249 535.633 504.251 524.979 504.251C515.143 504.251 507.956 503.202 507.956 501.767C507.956 497.846 484.433 498.806 479.45 502.93C474.56 506.976 444.401 508.315 444.401 504.486C444.401 501.674 416.309 504.193 415.272 507.099C414.341 509.704 389.924 509.951 389.928 507.355C389.928 504.821 364.129 506.716 362.62 509.36C360.631 512.844 342.259 515.242 342.259 512.018C342.259 507.503 317.445 508.371 315.842 512.942C314.298 517.344 299.133 518.156 299.133 513.837C299.133 510.436 274.218 512.609 272.107 516.193C271.366 517.452 268.462 519.266 265.653 520.225C261.747 521.558 260.546 520.985 260.546 517.787C260.546 514.662 259.255 513.983 255.439 515.102C252.63 515.926 246.501 516.615 241.82 516.633C235.781 516.657 233.308 517.749 233.308 520.392C233.308 522.462 231.291 524.117 228.768 524.117C226.272 524.117 224.229 522.856 224.229 521.314C224.229 516.962 201.32 521.096 197.569 526.125C195.269 529.209 194.122 529.5 193.254 527.221C191.658 523.027 176.888 523.314 169.224 527.688C165.812 529.636 162.508 530.323 161.883 529.215C160.072 526.01 139.378 529.274 136.503 533.219C134.654 535.755 133.634 535.943 133.001 533.864C131.728 529.685 103.525 534.57 53.6841 547.604C40.4061 551.076 28.4045 553.917 27.0138 553.917C25.2233 553.917 24.6356 539.596 25.0005 504.872H24.9922ZM925.026 552.071L907.435 551.225L907.433 542.017V532.809L956.804 533.419C983.957 533.754 1011.54 534.672 1018.09 535.46C1029.89 536.878 1030.01 536.972 1030.01 545.404V553.917L986.314 553.417C962.282 553.142 934.704 552.537 925.029 552.071H925.026ZM610.515 542.21L611.224 532.809L669.906 532.146L728.588 531.482L722.378 539.595C718.962 544.058 713.706 548.463 710.697 549.385C707.688 550.307 683.757 551.185 657.516 551.336L609.806 551.612L610.515 542.21ZM791.406 549.219C785.982 548.221 781.098 544.969 777.018 539.638L770.842 531.567H827.79H884.737V541.5V551.434L842.178 551.081C818.77 550.888 795.923 550.049 791.406 549.219ZM40.5002 476.935C40.6407 457.81 41.6907 442.168 42.8315 442.168C43.9845 442.168 44.9051 457.604 44.9051 476.935C44.9051 499.062 44.0578 511.701 42.5744 511.701C41.0789 511.701 40.3354 499.245 40.5002 476.935ZM1454.46 476.935C1454.46 454.577 1455.3 442.168 1456.82 442.168C1458.34 442.168 1459.06 454.366 1458.87 476.935C1458.71 496.056 1457.65 511.701 1456.52 511.701C1455.39 511.701 1454.46 496.056 1454.46 476.935ZM60.7938 470.908C60.7938 438.92 60.3684 434.949 56.8216 433.834C54.6368 433.148 55.778 432.786 59.3574 433.031L65.866 433.477L65.6503 468.243C65.5316 487.364 65.4131 503.847 65.3843 504.872C65.3552 505.896 64.3114 506.734 63.063 506.734C61.6547 506.734 60.7932 493.137 60.7932 470.908H60.7938ZM1433.95 506.113C1433.91 505.772 1433.65 488.685 1433.39 468.142L1432.9 430.792L1439.17 431.8C1442.62 432.354 1445.94 433.692 1446.55 434.773C1447.16 435.854 1445.61 436.154 1443.11 435.439C1438.72 434.183 1438.57 435.353 1438.57 470.437C1438.57 492.979 1437.71 506.734 1436.3 506.734C1435.05 506.734 1434 506.455 1433.95 506.113ZM81.2222 462.216C81.2222 425.934 80.8606 422.283 77.25 422.099C74.7012 421.97 75.7181 420.721 80.0872 418.615C83.8325 416.809 87.5136 415.748 88.268 416.256C89.0227 416.765 89.5338 435.917 89.4035 458.817C89.1905 496.375 88.7776 500.535 85.1943 501.292C81.5442 502.063 81.2222 498.894 81.2222 462.216ZM1410.11 499.134C1409.3 497.686 1408.98 478.144 1409.41 455.708C1410.17 416.257 1410.35 414.964 1414.74 416.425C1417.24 417.256 1420.81 418.884 1422.68 420.043C1425.55 421.816 1425.46 422.162 1422.12 422.226C1418.5 422.295 1418.14 425.878 1418.14 462.034C1418.14 494.973 1417.58 501.767 1414.87 501.767C1413.07 501.767 1410.93 500.582 1410.11 499.134ZM103.92 453.707C103.92 414.406 103.54 410.14 99.9481 409.113C97.3079 408.358 97.917 407.881 101.764 407.689C104.947 407.531 108.801 406.035 110.328 404.365C112.516 401.971 112.972 411.301 112.484 448.411C111.924 490.965 111.483 495.575 107.892 496.329C104.232 497.099 103.92 493.758 103.92 453.707ZM1386.37 449.618C1386.37 406.428 1387.56 396.993 1392.04 404.918C1392.81 406.284 1395.68 407.531 1398.42 407.689C1402.26 407.912 1402.48 408.236 1399.42 409.113C1395.83 410.14 1395.45 414.398 1395.45 453.525C1395.45 495.145 1395.27 496.8 1390.91 496.8C1386.53 496.8 1386.37 495.145 1386.37 449.618ZM128.888 445.893C128.888 399.981 128.886 399.951 123.781 399.697C115.742 399.296 142.474 390.342 152.225 390.17C157.468 390.077 161.292 388.637 162.052 386.47C162.853 384.187 168.443 382.319 177.723 381.231C186.788 380.169 192.598 378.258 193.359 376.088C194.209 373.665 198.675 372.635 208.332 372.635C218.08 372.635 222.452 371.614 223.321 369.134C224.212 366.594 229.023 365.587 240.833 365.466C253.466 365.337 257.755 364.345 259.96 361.046C262.298 357.548 266.027 356.897 280.964 357.382C295.406 357.851 299.124 357.248 299.124 354.439C299.124 350.462 312.853 346.519 314.862 349.919C316.895 353.359 342.251 350.207 342.251 346.514C342.251 342.845 360.818 340.055 362.89 343.412C364.688 346.324 388.339 342.846 390.417 339.365C391.495 337.558 400.947 336.879 418.222 337.367C439.98 337.981 444.393 337.494 444.393 334.474C444.393 331.739 448.174 330.611 459.714 329.905C468.14 329.389 476.005 329.852 477.192 330.935C480.855 334.278 502.83 333.18 506.207 329.485C509.57 325.806 541.995 322.641 541.995 325.992C541.995 329.009 570.278 328.282 573.102 325.192C576.674 321.284 614.629 318.932 614.629 322.619C614.629 326.723 645.721 326.462 646.971 322.348C648.217 318.253 694.072 316.213 694.072 320.253C694.072 323.727 725.03 323.946 726.984 320.486C727.758 319.116 737.934 318.002 749.683 318.002C761.431 318.002 771.607 319.116 772.381 320.486C774.336 323.946 805.293 323.727 805.293 320.253C805.293 316.587 850.259 318.228 852.477 321.975C854.762 325.832 884.737 326.589 884.737 322.789C884.737 318.901 922.36 320.921 926.097 325.01C929.042 328.232 957.371 329.122 957.371 325.992C957.371 322.641 989.796 325.806 993.159 329.485C996.62 333.272 1018.66 334.248 1022.17 330.769C1023.36 329.596 1031.23 329.167 1039.65 329.817C1051.42 330.724 1054.97 331.878 1054.97 334.799C1054.97 338.075 1058.23 338.37 1078.59 336.93C1097.38 335.601 1102.85 335.972 1105.39 338.749C1109.33 343.056 1136.69 346.978 1136.69 343.236C1136.69 339.792 1153.02 342.522 1155.98 346.46C1158.79 350.197 1183.81 353.299 1184.81 350.033C1185.93 346.361 1200.24 350.447 1200.24 354.439C1200.24 357.248 1203.96 357.851 1218.4 357.382C1233.34 356.897 1237.07 357.548 1239.41 361.046C1241.61 364.345 1245.9 365.337 1258.53 365.466C1270.34 365.587 1275.15 366.594 1276.04 369.134C1276.91 371.6 1281.24 372.635 1290.68 372.635C1299.68 372.635 1305 373.831 1306.85 376.262C1308.36 378.257 1315.72 380.647 1323.21 381.573C1331.41 382.588 1337.29 384.601 1338 386.638C1338.68 388.589 1342.68 390.082 1347.45 390.17C1357 390.345 1383.45 399.304 1375.58 399.697C1370.48 399.951 1370.48 399.981 1370.48 445.893V491.834H1364.8H1359.13V443.72V395.606L1351.96 394.036C1348.01 393.173 1344.47 392.806 1344.1 393.219C1343.72 393.633 1343.29 414.873 1343.14 440.419L1342.87 486.867H1336.29H1329.71L1329.1 436.58L1328.49 386.293L1319.97 385.523L1311.46 384.752V434.254V483.757L1304.09 482.107L1296.71 480.458L1296.1 429.307C1295.49 378.758 1295.42 378.138 1290.42 376.671C1279.4 373.439 1279.68 372.113 1279.68 426.713V478.307L1270.61 477.359L1261.53 476.412V423.564V370.716L1254.15 369.488C1250.09 368.812 1246.01 368.752 1245.07 369.352C1244.13 369.953 1243.37 393.575 1243.37 421.845V473.245L1233.15 472.356L1222.94 471.467V417.085C1222.94 366.96 1222.63 362.699 1218.97 362.668C1216.78 362.647 1212.7 361.96 1209.89 361.137L1204.78 359.639V414.01V468.38L1192.86 467.07L1180.95 465.759L1180.34 410.505L1179.73 355.252H1170.69H1161.65V408.643V462.034L1152.01 462C1130.63 461.925 1132.15 466.415 1132.15 403.387V347.802H1123.07H1113.99V402.435V457.068L1105.48 457.04C1100.8 457.024 1093.13 456.32 1088.45 455.474L1079.94 453.934V398.657V343.379L1071.43 342.212C1066.75 341.57 1062.15 341.514 1061.21 342.087C1060.28 342.66 1059.51 367.809 1059.51 397.974V452.819L1044.19 451.236C1035.76 450.365 1026.06 449.645 1022.63 449.635L1016.39 449.617V394.032C1016.39 338.488 1016.39 338.446 1011.28 336.95C997.559 332.928 998.228 330.127 998.228 391.618V447.852L982.906 446.269C974.48 445.398 964.266 444.678 960.208 444.668L952.831 444.649V388.775V332.901H942.617H932.403V387.905V442.91L911.626 441.296C900.198 440.409 887.897 439.683 884.289 439.683C880.357 439.683 877.876 438.439 878.097 436.579C878.3 434.871 878.344 409.664 878.196 380.562L877.927 327.649L868.281 328.412L858.634 329.176L858.029 383.808L857.424 438.441L829.131 437.679L800.84 436.917L800.229 381.805L799.619 326.693H789.405H779.19L778.579 381.946L777.969 437.199H749.683H721.397L720.786 381.946L720.175 326.693H709.961H699.747L699.136 381.946L698.525 437.199H670.24H641.955L641.343 383.188L640.731 329.176L631.085 328.412L621.438 327.649V382.502C621.438 424.202 620.758 437.592 618.601 438.343C617.04 438.887 604.783 439.786 591.363 440.341L566.963 441.351V387.126V332.901H556.748H546.534V387.196V441.491L536.003 443.07C530.211 443.939 519.997 444.649 513.305 444.649H501.138V389.867V335.084L492.626 335.855L484.114 336.626L483.504 391.53L482.894 446.435L468.985 448.025C461.335 448.9 451.651 449.616 447.464 449.616H439.853V396.372C439.853 367.087 438.991 342.544 437.938 341.832C436.884 341.12 432.288 341.2 427.723 342.01L419.425 343.484V397.467V451.449L410.913 452.989C406.231 453.835 398.571 454.54 393.889 454.555L385.377 454.583V401.192V347.801H376.298H367.219V402.123V456.445L360.126 457.997C356.225 458.851 349.585 459.549 345.372 459.549H337.711V407.4V355.251H328.632H319.553V408.376C319.553 467.47 320.399 464.516 303.478 464.516H294.585V412.077V359.638L289.478 361.135C286.669 361.959 282.603 362.648 280.443 362.666C276.864 362.697 276.462 367.373 275.904 415.471L275.291 468.241L265.645 469.004L255.998 469.768V420.106C255.998 392.791 255.232 369.952 254.296 369.351C253.359 368.75 249.274 368.811 245.216 369.486L237.839 370.714V422.582V474.449H232.351C229.332 474.449 225.246 475.127 223.271 475.956C220.069 477.301 219.681 471.934 219.681 426.29V375.117L214.574 375.155C204.194 375.232 203.923 376.514 203.274 428.521L202.657 477.974L195.28 479.623L187.903 481.271V433.011V384.75L179.392 385.521L170.88 386.292L170.265 435.061C169.666 482.624 169.53 483.864 164.764 485.228C162.077 485.997 159.007 486.037 157.942 485.317C156.877 484.597 156.109 463.875 156.235 439.267C156.361 414.66 155.951 393.964 155.323 393.277C154.695 392.59 151.043 392.781 147.209 393.703L140.237 395.378V442.098C140.237 490.335 139.959 491.832 130.973 491.832C129.782 491.832 128.888 472.135 128.888 445.891V445.893ZM20.9792 442.28C27.7809 434.057 60.761 411.184 84.6269 398.138C188.288 341.471 334.52 311.397 572.637 297.774C640.344 293.901 859.676 293.896 926.728 297.766C1158.93 311.171 1301.81 339.612 1404.37 392.849C1431.13 406.737 1472.95 434.863 1479.31 443.257C1481.81 446.551 1481.57 447.134 1477.71 447.134C1475.22 447.134 1471.94 445.5 1470.42 443.503C1464.97 436.315 1430.19 413.637 1409.06 403.493C1311.47 356.633 1153.65 326.747 931.268 313.014C859.654 308.591 706.675 307.205 631.652 310.298C325.435 322.926 123.542 366.056 36.4908 437.441C23.4951 448.099 13.617 451.179 20.9792 442.279V442.28ZM8.58805 438.443C8.58805 436.394 7.56657 434.718 6.31823 434.718C3.06786 434.718 3.51062 418.989 6.88569 414.563C17.8885 400.136 81.5291 360.99 121.526 344.049C130.584 340.212 137.571 336.607 137.051 336.039C135.665 334.523 93.4907 353.488 69.266 366.519C56.3887 373.447 50.8483 375.602 54.8941 372.11C66.4497 362.136 101.367 341.024 123.996 330.329C136.05 324.632 157.787 314.01 172.302 306.723C189.158 298.261 200.434 293.972 203.512 294.853C206.957 295.839 208.332 295.087 208.332 292.217C208.332 288.352 211.829 287.136 220.248 288.073C222.433 288.316 224.221 287.367 224.221 285.963C224.221 284.56 226.348 282.165 228.949 280.642C232.669 278.464 234.522 278.71 237.639 281.797C239.818 283.954 243.053 285.641 244.827 285.545C246.762 285.44 246.304 284.621 243.683 283.497C239.445 281.681 239.462 281.46 244.25 276.222C249.331 270.663 255.998 268.963 255.998 273.225C255.998 274.548 257.53 274.987 259.403 274.201C261.275 273.415 262.807 271.345 262.807 269.602C262.807 265.464 272.399 262.742 274.414 266.308C276.463 269.936 283.236 266.994 283.236 262.475C283.236 258.202 295.234 254.325 296.419 258.216C297.747 262.574 303.047 261.255 304.238 256.271C305.482 251.067 317.818 246.503 319.117 250.766C320.392 254.951 325.5 253.901 328.922 248.751C332.388 243.535 344.521 239.417 344.521 243.456C344.521 247.361 350.869 246.448 353.024 242.234C354.08 240.17 358.207 237.457 362.195 236.205C367.904 234.414 369.864 234.745 371.406 237.76C373.101 241.073 373.982 240.867 377.923 236.238C382.99 230.288 398.996 226.129 398.996 230.762C398.996 232.307 401.039 233.57 403.536 233.57C406.033 233.57 408.076 231.96 408.076 229.992C408.076 225.382 409.479 224.572 421.127 222.464C428.885 221.059 430.774 221.444 430.774 224.428C430.774 226.916 432.27 227.711 435.313 226.84C437.81 226.126 439.853 224.135 439.853 222.416C439.853 220.697 443.045 218.593 446.946 217.739C457.544 215.421 465.279 215.851 463.686 218.671C462.89 220.079 464.797 221.154 468.092 221.154C471.708 221.154 473.9 219.766 473.9 217.476C473.9 213.797 477.652 212.319 491.491 210.544C496.542 209.896 498.868 210.637 498.868 212.892C498.868 214.751 501.341 216.187 504.543 216.187C507.88 216.187 510.217 214.762 510.217 212.728C510.217 208.04 515.278 206.254 528.561 206.254C536.466 206.254 539.725 207.241 539.725 209.635C539.725 211.902 541.594 212.624 545.399 211.828C548.52 211.176 551.074 209.235 551.074 207.517C551.074 203.98 561.007 201.287 574.056 201.287C580.361 201.287 582.851 202.342 582.851 205.012C582.851 210.836 593.431 209.742 594.858 203.771C595.914 199.354 597.954 198.804 613.281 198.804C627.089 198.804 630.518 199.545 630.518 202.529C630.518 204.847 632.661 206.254 636.192 206.254C640.353 206.254 641.867 204.93 641.867 201.287C641.867 196.71 643.38 196.321 661.16 196.321C678.94 196.321 680.454 196.71 680.454 201.287C680.454 208.434 693.976 208.434 695.685 201.287C696.759 196.791 698.78 196.321 717.035 196.321C735.911 196.321 737.199 196.649 737.199 201.46C737.199 205.369 738.421 206.41 742.306 205.806C746.483 205.157 747.413 203.441 747.413 196.388V187.763L697.477 188.366C513.13 190.592 347.639 221.813 220.725 278.31C208.5 283.752 198.14 287.813 197.702 287.334C197.265 286.856 208.107 281.232 221.798 274.838C347.758 216.004 487.24 186.018 663.997 179.774L709.961 178.15V171.181C709.961 162.614 713.638 160.284 733.458 156.288C742.053 154.555 747.796 152.289 746.681 151.068C745.566 149.848 737.41 150.704 727.903 153.039C707.386 158.076 702.35 158.527 700.882 155.457C699.34 152.232 727.223 141.836 737.632 141.754C742.24 141.718 746.74 140.396 747.632 138.818C749.294 135.875 730.835 137.079 719.608 140.645C712.167 143.009 713.221 138.286 722.694 126.813C727.518 120.972 734.519 115.701 739.718 113.997L748.548 111.102V55.6211C748.548 20.2892 749.413 0 749.413 0L752.797 0.138069C752.797 0.138069 753.088 37.8144 753.088 55.4093V110.677L764.275 116.293C771.243 119.79 777.236 125.047 780.164 130.229C787.185 142.658 786.301 144.16 774.29 140.205C762.648 136.372 753.088 135.665 753.088 138.638C753.088 139.691 759.047 141.792 766.331 143.307C783.708 146.92 802.879 156.101 798.803 158.857C797.076 160.024 790.319 159.064 782.952 156.604C767.029 151.287 753.088 148.834 753.088 151.35C753.088 152.393 759.901 154.621 768.229 156.3C787.497 160.184 791.206 162.448 792.091 170.867C792.786 177.471 793.3 177.716 807.563 178.254C1008.23 185.817 1141.35 212.504 1269.02 270.761C1291.37 280.959 1290.56 283.444 1268.06 273.707C1146.24 220.993 977.519 189.897 806.428 188.629C780.212 188.435 757.485 188.41 755.925 188.574C754.247 188.751 753.088 192.425 753.088 197.564C753.088 204.6 753.952 206.255 757.627 206.255C760.654 206.255 762.167 204.6 762.167 201.289C762.167 196.675 763.68 196.322 783.478 196.322C802.381 196.322 804.753 196.813 804.474 200.668C804.244 203.847 806.14 205.223 811.535 205.792C817.704 206.443 818.912 205.731 818.912 201.446C818.912 196.692 820.237 196.322 837.283 196.322C853.906 196.322 855.77 196.808 856.873 201.422C857.779 205.213 859.619 206.329 864.038 205.768C867.323 205.351 869.729 203.625 869.416 201.91C869.001 199.644 873.506 198.806 886.084 198.806C901.412 198.806 903.452 199.356 904.508 203.772C905.935 209.744 916.514 210.838 916.514 205.014C916.514 202.344 919.005 201.289 925.31 201.289C938.359 201.289 948.292 203.981 948.292 207.518C948.292 212.376 959.292 213.795 960.129 209.044C961.314 202.311 989.148 205.751 989.148 212.631C989.148 214.77 991.411 216.189 994.823 216.189C998.311 216.189 1000.5 214.777 1000.5 212.526C1000.5 209.773 1002.33 209.197 1007.87 210.206C1023.32 213.019 1025.47 213.904 1025.47 217.478C1025.47 221.841 1036 222.586 1037.3 218.315C1038.55 214.232 1059.51 217.956 1059.51 222.26C1059.51 224.065 1061.56 226.127 1064.05 226.841C1067.1 227.712 1068.59 226.918 1068.59 224.43C1068.59 221.446 1070.48 221.061 1078.24 222.465C1089.89 224.574 1091.29 225.383 1091.29 229.993C1091.29 231.961 1093.33 233.572 1095.83 233.572C1098.33 233.572 1100.37 232.308 1100.37 230.764C1100.37 226.2 1115.34 230.086 1120.81 236.069C1125.01 240.659 1126.08 240.909 1128.36 237.822C1131.73 233.243 1145.77 236.88 1145.77 242.334C1145.77 244.344 1147.81 245.988 1150.31 245.988C1152.8 245.988 1154.85 244.849 1154.85 243.458C1154.85 239.418 1166.98 243.536 1170.44 248.752C1173.87 253.903 1178.97 254.952 1180.25 250.768C1181.55 246.504 1193.88 251.068 1195.13 256.272C1196.32 261.257 1201.62 262.575 1202.95 258.217C1204.13 254.327 1216.13 258.201 1216.13 262.477C1216.13 266.995 1222.9 269.938 1224.95 266.31C1226.97 262.743 1236.56 265.465 1236.56 269.604C1236.56 273.595 1242.77 276.38 1244.56 273.196C1246.69 269.425 1249.5 270.37 1256.13 277.095C1260.28 281.298 1262.84 282.443 1263.9 280.564C1265.73 277.332 1275.15 281.7 1275.15 285.779C1275.15 287.081 1276.93 287.982 1279.12 287.782C1287.46 287.016 1291.03 288.345 1291.03 292.219C1291.03 295.065 1292.41 295.84 1295.76 294.88C1298.69 294.042 1308.85 297.795 1322.43 304.732C1334.5 310.894 1353.06 319.888 1363.67 324.717C1387.44 335.536 1405.69 345.468 1424.95 358.062C1448.81 373.662 1452.62 378.698 1432.27 367.737C1397.21 348.851 1324.26 318.073 1321.56 321.029C1321.03 321.608 1326.46 324.07 1333.62 326.499C1387.58 344.795 1467.02 388.302 1490.21 412.255C1495.46 417.675 1497.61 434.719 1493.05 434.719C1491.8 434.719 1490.78 436.395 1490.78 438.444C1490.78 443.703 1487.59 443.08 1480.17 436.367C1436.8 397.146 1355.55 359.028 1268.34 336.99C1148.31 306.66 1006.87 292.202 799.619 289.078C507.795 284.68 285.404 310.388 141.372 365.17C110.894 376.763 55.5805 407.622 32.4211 425.954C21.1856 434.847 11.2267 442.134 10.2904 442.147C9.35416 442.16 8.58805 440.493 8.58805 438.444V438.443ZM164.829 326.645C173.151 323.461 178.861 320.772 177.519 320.671C174.378 320.433 142.195 332.384 140.437 334.442C138.887 336.255 143.924 334.645 164.829 326.645ZM229.895 325.453C230.667 324.087 230.216 322.969 228.894 322.969C227.572 322.969 226.49 324.087 226.49 325.453C226.49 326.818 226.941 327.936 227.491 327.936C228.042 327.936 229.124 326.818 229.895 325.453ZM200.908 314.019C200.153 313.194 198.196 313.105 196.557 313.823C194.746 314.616 195.284 315.204 197.929 315.323C200.321 315.431 201.662 314.844 200.908 314.019ZM276.426 313.036C276.426 311.67 275.976 310.553 275.426 310.553C274.875 310.553 273.793 311.67 273.022 313.036C272.25 314.402 272.7 315.519 274.022 315.519C275.344 315.519 276.426 314.402 276.426 313.036ZM1227.48 314.424C1227.48 313.822 1226.46 312.638 1225.21 311.794C1223.96 310.95 1222.94 311.443 1222.94 312.889C1222.94 314.336 1223.96 315.519 1225.21 315.519C1226.46 315.519 1227.48 315.026 1227.48 314.424ZM1304.04 314.019C1303.28 313.194 1301.33 313.105 1299.69 313.823C1297.88 314.616 1298.41 315.204 1301.06 315.323C1303.45 315.431 1304.79 314.844 1304.04 314.019ZM214.006 310.553C216.868 309.207 217.287 308.418 215.141 308.418C213.269 308.418 209.694 309.379 207.197 310.553C204.336 311.898 203.916 312.687 206.062 312.687C207.935 312.687 211.51 311.727 214.006 310.553ZM294.585 310.553C294.585 309.187 293.563 308.069 292.315 308.069C291.067 308.069 290.045 309.187 290.045 310.553C290.045 311.919 291.067 313.036 292.315 313.036C293.563 313.036 294.585 311.919 294.585 310.553ZM1209.32 310.553C1209.32 309.187 1208.3 308.069 1207.05 308.069C1205.8 308.069 1204.78 309.187 1204.78 310.553C1204.78 311.919 1205.8 313.036 1207.05 313.036C1208.3 313.036 1209.32 311.919 1209.32 310.553ZM1292.17 310.717C1289.67 309.615 1284.05 308.054 1279.68 307.247C1271.85 305.802 1271.87 305.83 1280.82 309.218C1290.56 312.904 1299.93 314.143 1292.17 310.717ZM194.713 308.069C194.713 306.704 193.751 305.586 192.577 305.586C191.402 305.586 189.81 306.704 189.038 308.069C188.267 309.435 189.227 310.553 191.174 310.553C193.12 310.553 194.713 309.435 194.713 308.069ZM1196.84 308.069C1197.61 306.704 1197.16 305.586 1195.84 305.586C1194.51 305.586 1193.43 306.704 1193.43 308.069C1193.43 309.435 1193.88 310.553 1194.43 310.553C1194.98 310.553 1196.06 309.435 1196.84 308.069ZM1310.33 308.069C1309.56 306.704 1307.96 305.586 1306.79 305.586C1305.61 305.586 1304.65 306.704 1304.65 308.069C1304.65 309.435 1306.25 310.553 1308.19 310.553C1310.14 310.553 1311.1 309.435 1310.33 308.069ZM210.602 302.63C210.602 299.366 205.443 301.41 204.312 305.122C203.759 306.937 204.797 307.492 207.007 306.564C208.984 305.734 210.602 303.964 210.602 302.63ZM225.876 306.569C225.121 305.744 223.164 305.656 221.525 306.373C219.714 307.166 220.252 307.754 222.896 307.873C225.289 307.981 226.63 307.394 225.876 306.569ZM323.373 302.637C322.648 300.656 322.111 301.245 322.002 304.138C321.902 306.755 322.44 308.222 323.194 307.397C323.948 306.572 324.029 304.43 323.373 302.637ZM1176.82 302.637C1176.1 300.656 1175.56 301.245 1175.45 304.138C1175.35 306.755 1175.89 308.222 1176.64 307.397C1177.4 306.572 1177.48 304.43 1176.82 302.637ZM242.379 303.103C246.872 301.528 247.109 301.115 243.514 301.115C241.017 301.115 236.421 302.009 233.3 303.103C228.806 304.677 228.57 305.091 232.165 305.091C234.662 305.091 239.258 304.196 242.379 303.103ZM330.902 303.103C330.902 301.737 329.88 300.62 328.632 300.62C327.384 300.62 326.362 301.737 326.362 303.103C326.362 304.469 327.384 305.586 328.632 305.586C329.88 305.586 330.902 304.469 330.902 303.103ZM336.576 303.103C337.348 301.737 336.897 300.62 335.575 300.62C334.253 300.62 333.172 301.737 333.172 303.103C333.172 304.469 333.622 305.586 334.172 305.586C334.723 305.586 335.805 304.469 336.576 303.103ZM1166.19 303.103C1166.19 301.737 1165.11 300.62 1163.79 300.62C1162.47 300.62 1162.02 301.737 1162.79 303.103C1163.56 304.469 1164.64 305.586 1165.19 305.586C1165.74 305.586 1166.19 304.469 1166.19 303.103ZM1173 303.103C1173 301.737 1171.98 300.62 1170.73 300.62C1169.49 300.62 1168.46 301.737 1168.46 303.103C1168.46 304.469 1169.49 305.586 1170.73 305.586C1171.98 305.586 1173 304.469 1173 303.103ZM1269.99 304.086C1269.24 303.261 1267.28 303.172 1265.64 303.89C1263.83 304.683 1264.37 305.271 1267.01 305.39C1269.4 305.498 1270.75 304.911 1269.99 304.086ZM1294.44 303.103C1293.67 301.737 1292.07 300.62 1290.9 300.62C1289.73 300.62 1288.76 301.737 1288.76 303.103C1288.76 304.469 1290.36 305.586 1292.3 305.586C1294.25 305.586 1295.21 304.469 1294.44 303.103ZM226.49 297.948C226.49 296.772 224.958 296.452 223.086 297.238C221.213 298.024 219.681 299.63 219.681 300.807C219.681 301.984 221.213 302.304 223.086 301.517C224.958 300.731 226.49 299.125 226.49 297.948ZM1256.99 300.62C1253.87 299.526 1249.27 298.631 1246.77 298.631C1243.18 298.631 1243.41 299.045 1247.91 300.62C1251.03 301.713 1255.62 302.608 1258.12 302.608C1261.72 302.608 1261.48 302.194 1256.99 300.62ZM1277.42 298.136C1275.61 296.919 1273.63 296.482 1273.01 297.165C1272.38 297.847 1273.34 299.402 1275.15 300.62C1276.95 301.837 1278.93 302.274 1279.55 301.591C1280.18 300.908 1279.22 299.353 1277.42 298.136ZM255.383 299.119C254.629 298.294 252.671 298.206 251.033 298.923C249.222 299.716 249.76 300.304 252.404 300.423C254.797 300.531 256.137 299.944 255.383 299.119ZM355.87 298.136C355.87 296.77 355.42 295.653 354.869 295.653C354.319 295.653 353.237 296.77 352.465 298.136C351.694 299.502 352.144 300.62 353.466 300.62C354.788 300.62 355.87 299.502 355.87 298.136ZM362.679 298.136C362.679 296.77 361.658 295.653 360.41 295.653C359.161 295.653 358.14 296.77 358.14 298.136C358.14 299.502 359.161 300.62 360.41 300.62C361.658 300.62 362.679 299.502 362.679 298.136ZM368.354 298.136C369.125 296.77 368.675 295.653 367.353 295.653C366.031 295.653 364.949 296.77 364.949 298.136C364.949 299.502 365.399 300.62 365.95 300.62C366.5 300.62 367.582 299.502 368.354 298.136ZM1134.42 298.136C1134.42 296.77 1133.33 295.653 1132.01 295.653C1130.69 295.653 1130.24 296.77 1131.01 298.136C1131.78 299.502 1132.87 300.62 1133.42 300.62C1133.97 300.62 1134.42 299.502 1134.42 298.136ZM1141.23 298.136C1141.23 296.77 1140.2 295.653 1138.96 295.653C1137.71 295.653 1136.69 296.77 1136.69 298.136C1136.69 299.502 1137.71 300.62 1138.96 300.62C1140.2 300.62 1141.23 299.502 1141.23 298.136ZM1148.04 299.524C1148.04 298.922 1147.01 297.739 1145.77 296.895C1144.52 296.05 1143.5 296.543 1143.5 297.99C1143.5 299.436 1144.52 300.62 1145.77 300.62C1147.01 300.62 1148.04 300.127 1148.04 299.524ZM241.059 296.629C246.27 294.441 245.47 290.916 240.109 292.45C237.612 293.164 235.57 294.736 235.57 295.942C235.57 298.539 236.294 298.629 241.059 296.629ZM265.645 296.491C264.084 295.802 261.531 295.802 259.97 296.491C258.41 297.18 259.686 297.744 262.807 297.744C265.928 297.744 267.205 297.18 265.645 296.491ZM376.298 297.041C376.298 296.439 375.277 295.255 374.028 294.411C372.78 293.567 371.759 294.06 371.759 295.506C371.759 296.953 372.78 298.136 374.028 298.136C375.277 298.136 376.298 297.643 376.298 297.041ZM386.928 292.704C386.203 290.723 385.666 291.311 385.557 294.204C385.457 296.822 385.995 298.289 386.749 297.463C387.503 296.638 387.584 294.496 386.928 292.704ZM1113.27 292.704C1112.54 290.723 1112.01 291.311 1111.9 294.204C1111.8 296.822 1112.34 298.289 1113.09 297.463C1113.84 296.638 1113.92 294.496 1113.27 292.704ZM1127.61 295.653C1127.61 294.287 1127.16 293.169 1126.61 293.169C1126.06 293.169 1124.97 294.287 1124.2 295.653C1123.43 297.019 1123.88 298.136 1125.2 298.136C1126.53 298.136 1127.61 297.019 1127.61 295.653ZM1236.56 295.653C1233.44 294.559 1228.84 293.664 1226.34 293.664C1222.75 293.664 1222.99 294.078 1227.48 295.653C1230.6 296.746 1235.2 297.641 1237.69 297.641C1241.29 297.641 1241.05 297.227 1236.56 295.653ZM1263.8 295.918C1263.8 293.164 1256.81 290.048 1255.02 292.004C1254.3 292.794 1255.22 294.479 1257.05 295.75C1261.3 298.686 1263.8 298.749 1263.8 295.919V295.918ZM288.91 292.074C296.401 290.225 299.976 288.704 296.855 288.696C290.487 288.677 266.563 294.958 271.887 295.249C273.759 295.352 281.42 293.923 288.91 292.074ZM407.356 290.221C406.632 288.24 406.094 288.828 405.985 291.721C405.886 294.339 406.423 295.805 407.177 294.98C407.931 294.155 408.012 292.013 407.356 290.221ZM1092.84 290.221C1092.12 288.24 1091.58 288.828 1091.47 291.721C1091.37 294.339 1091.91 295.805 1092.66 294.98C1093.42 294.155 1093.5 292.013 1092.84 290.221ZM262.181 289.019C262.744 287.169 261.367 286.596 258.397 287.446C255.829 288.181 253.728 289.851 253.728 291.158C253.728 294.455 261.094 292.591 262.181 289.019ZM427.785 287.737C427.06 285.756 426.522 286.345 426.413 289.238C426.314 291.855 426.851 293.322 427.606 292.497C428.36 291.672 428.44 289.53 427.785 287.737ZM1072.41 287.737C1071.69 285.756 1071.15 286.345 1071.04 289.238C1070.94 291.855 1071.48 293.322 1072.23 292.497C1072.99 291.672 1073.07 289.53 1072.41 287.737ZM1214.99 290.686C1211.25 289.644 1205.63 288.79 1202.51 288.79C1197.45 288.79 1197.57 288.995 1203.65 290.686C1207.39 291.729 1213.01 292.582 1216.13 292.582C1221.19 292.582 1221.07 292.377 1214.99 290.686ZM1242.4 289.391C1239.99 287.4 1237.47 286.379 1236.79 287.122C1235.36 288.681 1241.13 293.113 1244.5 293.052C1245.75 293.031 1244.8 291.382 1242.4 289.391ZM449.97 288.374C450.689 287.103 450.238 285.361 448.969 284.503C447.701 283.645 446.663 284.685 446.663 286.815C446.663 291.177 448.025 291.819 449.97 288.374ZM1052.7 288.203C1052.7 286.837 1051.62 285.72 1050.3 285.72C1048.98 285.72 1048.53 286.837 1049.3 288.203C1050.07 289.569 1051.15 290.686 1051.7 290.686C1052.25 290.686 1052.7 289.569 1052.7 288.203ZM282.61 284.052C283.173 282.202 281.796 281.63 278.826 282.48C276.257 283.214 274.156 284.884 274.156 286.191C274.156 289.488 281.523 287.624 282.61 284.052ZM311.041 286.558C309.48 285.869 306.927 285.869 305.366 286.558C303.806 287.247 305.083 287.811 308.204 287.811C311.325 287.811 312.601 287.247 311.041 286.558ZM458.012 285.72C458.012 284.354 456.99 283.236 455.742 283.236C454.493 283.236 453.472 284.354 453.472 285.72C453.472 287.085 454.493 288.203 455.742 288.203C456.99 288.203 458.012 287.085 458.012 285.72ZM464.821 285.72C464.821 284.354 463.8 283.236 462.551 283.236C461.303 283.236 460.281 284.354 460.281 285.72C460.281 287.085 461.303 288.203 462.551 288.203C463.8 288.203 464.821 287.085 464.821 285.72ZM471.63 285.72C471.63 284.354 470.609 283.236 469.361 283.236C468.112 283.236 467.091 284.354 467.091 285.72C467.091 287.085 468.112 288.203 469.361 288.203C470.609 288.203 471.63 287.085 471.63 285.72ZM478.44 284.331C478.44 282.202 477.402 281.162 476.133 282.019C474.864 282.877 474.414 284.62 475.132 285.891C477.078 289.336 478.44 288.693 478.44 284.331ZM1032.28 285.72C1032.28 284.354 1031.25 283.236 1030.01 283.236C1028.76 283.236 1027.74 284.354 1027.74 285.72C1027.74 287.085 1028.76 288.203 1030.01 288.203C1031.25 288.203 1032.28 287.085 1032.28 285.72ZM1039.08 285.72C1039.08 284.354 1038.06 283.236 1036.81 283.236C1035.57 283.236 1034.54 284.354 1034.54 285.72C1034.54 287.085 1035.57 288.203 1036.81 288.203C1038.06 288.203 1039.08 287.085 1039.08 285.72ZM1045.89 285.72C1045.89 284.354 1045.44 283.236 1044.89 283.236C1044.34 283.236 1043.26 284.354 1042.49 285.72C1041.72 287.085 1042.17 288.203 1043.49 288.203C1044.81 288.203 1045.89 287.085 1045.89 285.72ZM1194 286.558C1192.44 285.869 1189.89 285.869 1188.32 286.558C1186.76 287.247 1188.04 287.811 1191.16 287.811C1194.28 287.811 1195.56 287.247 1194 286.558ZM1225.21 285.72C1225.21 284.354 1223.11 283.236 1220.54 283.236C1217.97 283.236 1216.49 284.354 1217.26 285.72C1218.04 287.085 1220.14 288.203 1221.94 288.203C1223.74 288.203 1225.21 287.085 1225.21 285.72ZM324.703 284.091C323.166 283.41 320.102 283.369 317.894 283.998C315.685 284.628 316.943 285.185 320.688 285.235C324.433 285.286 326.24 284.771 324.703 284.09V284.091ZM485.249 283.236C485.249 281.87 484.799 280.753 484.248 280.753C483.698 280.753 482.616 281.87 481.844 283.236C481.073 284.602 481.523 285.72 482.846 285.72C484.168 285.72 485.249 284.602 485.249 283.236ZM494.329 284.624C494.329 284.022 493.307 282.839 492.059 281.995C490.81 281.15 489.789 281.643 489.789 283.09C489.789 284.536 490.81 285.72 492.059 285.72C493.307 285.72 494.329 285.227 494.329 284.624ZM501.138 283.236C501.138 281.87 500.117 280.753 498.868 280.753C497.62 280.753 496.598 281.87 496.598 283.236C496.598 284.602 497.62 285.72 498.868 285.72C500.117 285.72 501.138 284.602 501.138 283.236ZM507.948 281.995C507.948 279.946 506.926 278.27 505.678 278.27C504.429 278.27 503.408 279.946 503.408 281.995C503.408 284.043 504.429 285.72 505.678 285.72C506.926 285.72 507.948 284.043 507.948 281.995ZM995.958 280.606C995.958 279.321 994.936 278.27 993.688 278.27C992.44 278.27 991.418 280.012 991.418 282.141C991.418 284.27 992.44 285.322 993.688 284.478C994.936 283.634 995.958 281.891 995.958 280.606ZM1002.77 283.236C1002.77 281.87 1001.75 280.753 1000.5 280.753C999.249 280.753 998.228 281.87 998.228 283.236C998.228 284.602 999.249 285.72 1000.5 285.72C1001.75 285.72 1002.77 284.602 1002.77 283.236ZM1009.58 283.236C1009.58 281.87 1008.56 280.753 1007.31 280.753C1006.06 280.753 1005.04 281.87 1005.04 283.236C1005.04 284.602 1006.06 285.72 1007.31 285.72C1008.56 285.72 1009.58 284.602 1009.58 283.236ZM1018.66 284.624C1018.66 284.022 1017.63 282.839 1016.39 281.995C1015.14 281.15 1014.12 281.643 1014.12 283.09C1014.12 284.536 1015.14 285.72 1016.39 285.72C1017.63 285.72 1018.66 285.227 1018.66 284.624ZM1025.47 284.624C1025.47 284.022 1024.44 282.839 1023.2 281.995C1021.95 281.15 1020.93 281.643 1020.93 283.09C1020.93 284.536 1021.95 285.72 1023.2 285.72C1024.44 285.72 1025.47 285.227 1025.47 284.624ZM1182.69 284.091C1181.16 283.41 1178.09 283.369 1175.88 283.998C1173.68 284.628 1174.93 285.185 1178.68 285.235C1182.42 285.286 1184.23 284.771 1182.69 284.09V284.091ZM1258.64 284.219C1257.89 283.394 1255.93 283.306 1254.29 284.023C1252.48 284.816 1253.02 285.404 1255.66 285.524C1258.06 285.631 1259.4 285.045 1258.64 284.219ZM290.607 273.106C404.4 244.902 567.552 226.141 699.18 226.126C729.062 226.123 746.278 225.213 746.278 223.637C746.278 220.481 713.76 220.497 631.652 223.69C492.177 229.116 390.072 242.635 295.381 268.214C262.735 277.033 235.428 286.199 254.863 281.814C258.608 280.969 274.693 277.051 290.607 273.106ZM302.529 280.753C303.301 279.387 301.829 278.27 299.258 278.27C296.688 278.27 294.585 279.387 294.585 280.753C294.585 282.119 296.056 283.236 297.855 283.236C299.654 283.236 301.758 282.119 302.529 280.753ZM338.322 281.607C336.785 280.927 333.721 280.886 331.513 281.515C329.304 282.145 330.562 282.701 334.307 282.752C338.052 282.803 339.859 282.287 338.322 281.607V281.607ZM514.757 280.753C514.757 279.387 513.736 278.27 512.487 278.27C511.239 278.27 510.217 279.387 510.217 280.753C510.217 282.119 511.239 283.236 512.487 283.236C513.736 283.236 514.757 282.119 514.757 280.753ZM523.836 280.753C523.836 279.387 522.815 278.27 521.566 278.27C520.318 278.27 519.297 279.387 519.297 280.753C519.297 282.119 520.318 283.236 521.566 283.236C522.815 283.236 523.836 282.119 523.836 280.753ZM530.646 280.753C530.646 279.387 529.624 278.27 528.376 278.27C527.128 278.27 526.106 279.387 526.106 280.753C526.106 282.119 527.128 283.236 528.376 283.236C529.624 283.236 530.646 282.119 530.646 280.753ZM537.455 279.365C537.455 277.235 536.417 276.195 535.148 277.053C533.879 277.911 533.429 279.653 534.147 280.925C536.093 284.369 537.455 283.727 537.455 279.365ZM965.219 280.925C965.937 279.653 965.486 277.911 964.217 277.053C962.949 276.195 961.911 277.235 961.911 279.365C961.911 283.727 963.273 284.369 965.219 280.925ZM973.26 280.753C973.26 279.387 972.238 278.27 970.99 278.27C969.742 278.27 968.72 279.387 968.72 280.753C968.72 282.119 969.742 283.236 970.99 283.236C972.238 283.236 973.26 282.119 973.26 280.753ZM980.069 280.753C980.069 279.387 979.048 278.27 977.799 278.27C976.551 278.27 975.53 279.387 975.53 280.753C975.53 282.119 976.551 283.236 977.799 283.236C979.048 283.236 980.069 282.119 980.069 280.753ZM989.148 280.753C989.148 279.387 988.127 278.27 986.879 278.27C985.63 278.27 984.609 279.387 984.609 280.753C984.609 282.119 985.63 283.236 986.879 283.236C988.127 283.236 989.148 282.119 989.148 280.753ZM1169.07 281.607C1167.54 280.927 1164.47 280.886 1162.27 281.515C1160.06 282.145 1161.31 282.701 1165.06 282.752C1168.8 282.802 1170.61 282.287 1169.07 281.607V281.607ZM1204.78 281.042C1204.78 279.836 1202.74 278.264 1200.24 277.55C1195.78 276.273 1194.24 278.325 1197.21 281.581C1199.42 283.99 1204.78 283.608 1204.78 281.042ZM1245.96 280.576C1232.48 274.669 1154.21 255.297 1116.55 248.548C1038.71 234.597 970.353 227.791 866.578 223.661C791.382 220.668 753.088 220.535 753.088 223.267C753.088 224.43 785.517 226.042 825.154 226.85C926.555 228.919 1016.8 237.072 1106.52 252.273C1146.48 259.042 1213.81 273.428 1233.15 279.33C1246.16 283.299 1253.89 284.051 1245.96 280.576ZM372.048 277.101C564.163 247.596 902.91 246.495 1109.13 274.704C1134.55 278.181 1155.76 280.579 1156.26 280.032C1158.45 277.638 1063.11 265.243 1000.5 259.781C915.991 252.409 841.015 250.315 710.229 251.672C585.109 252.971 552.696 254.411 472.765 262.225C431.802 266.23 344.029 278.022 342.44 279.734C340.828 281.471 347.4 280.887 372.048 277.101ZM546.534 279.658C546.534 279.055 545.513 277.872 544.265 277.028C543.016 276.184 541.995 276.677 541.995 278.123C541.995 279.569 543.016 280.753 544.265 280.753C545.513 280.753 546.534 280.26 546.534 279.658ZM553.344 278.27C553.344 276.904 552.322 275.786 551.074 275.786C549.826 275.786 548.804 276.904 548.804 278.27C548.804 279.635 549.826 280.753 551.074 280.753C552.322 280.753 553.344 279.635 553.344 278.27ZM561.288 278.27C560.517 276.904 558.924 275.786 557.75 275.786C556.575 275.786 555.614 276.904 555.614 278.27C555.614 279.635 557.206 280.753 559.152 280.753C561.098 280.753 562.06 279.635 561.288 278.27ZM569.233 278.27C569.233 276.904 568.211 275.786 566.963 275.786C565.714 275.786 564.693 276.904 564.693 278.27C564.693 279.635 565.714 280.753 566.963 280.753C568.211 280.753 569.233 279.635 569.233 278.27ZM576.042 276.881C576.042 274.752 575.004 273.712 573.735 274.57C572.466 275.428 572.016 277.17 572.734 278.441C574.68 281.886 576.042 281.243 576.042 276.881ZM585.121 275.64C585.121 274.354 584.1 273.303 582.851 273.303C581.603 273.303 580.582 275.045 580.582 277.174C580.582 279.304 581.603 280.355 582.851 279.511C584.1 278.667 585.121 276.925 585.121 275.64ZM917.886 273.976C915.578 271.451 913.675 275.252 915.568 278.603C916.998 281.134 917.532 281.136 918.301 278.613C918.827 276.888 918.64 274.801 917.886 273.976V273.976ZM927.863 278.416C927.863 277.131 926.842 275.389 925.594 274.545C924.345 273.701 923.324 274.752 923.324 276.881C923.324 279.011 924.345 280.753 925.594 280.753C926.842 280.753 927.863 279.701 927.863 278.416ZM934.673 278.27C934.673 276.904 933.651 275.786 932.403 275.786C931.155 275.786 930.133 276.904 930.133 278.27C930.133 279.635 931.155 280.753 932.403 280.753C933.651 280.753 934.673 279.635 934.673 278.27ZM943.752 278.27C943.752 276.904 942.731 275.786 941.482 275.786C940.234 275.786 939.213 276.904 939.213 278.27C939.213 279.635 940.234 280.753 941.482 280.753C942.731 280.753 943.752 279.635 943.752 278.27ZM950.562 278.27C950.562 276.904 949.54 275.786 948.292 275.786C947.043 275.786 946.022 276.904 946.022 278.27C946.022 279.635 947.043 280.753 948.292 280.753C949.54 280.753 950.562 279.635 950.562 278.27ZM957.371 278.27C957.371 276.904 956.35 275.786 955.101 275.786C953.853 275.786 952.831 276.904 952.831 278.27C952.831 279.635 953.853 280.753 955.101 280.753C956.35 280.753 957.371 279.635 957.371 278.27ZM326.362 274.777C326.362 272.507 324.773 271.739 321.823 272.584C319.326 273.298 317.283 274.87 317.283 276.076C317.283 277.283 319.326 278.27 321.823 278.27C324.319 278.27 326.362 276.698 326.362 274.777ZM591.931 275.786C591.931 274.421 590.909 273.303 589.661 273.303C588.413 273.303 587.391 274.421 587.391 275.786C587.391 277.152 588.413 278.27 589.661 278.27C590.909 278.27 591.931 277.152 591.931 275.786ZM601.01 275.786C601.01 274.421 599.989 273.303 598.74 273.303C597.492 273.303 596.47 274.421 596.47 275.786C596.47 277.152 597.492 278.27 598.74 278.27C599.989 278.27 601.01 277.152 601.01 275.786ZM608.954 275.786C609.726 274.421 608.765 273.303 606.818 273.303C604.872 273.303 603.28 274.421 603.28 275.786C603.28 277.152 604.241 278.27 605.416 278.27C606.59 278.27 608.183 277.152 608.954 275.786ZM616.899 275.786C616.899 274.421 615.877 273.303 614.629 273.303C613.381 273.303 612.359 274.421 612.359 275.786C612.359 277.152 613.381 278.27 614.629 278.27C615.877 278.27 616.899 277.152 616.899 275.786ZM625.978 275.786C625.978 274.421 624.385 273.303 622.439 273.303C620.493 273.303 619.532 274.421 620.303 275.786C621.075 277.152 622.667 278.27 623.842 278.27C625.017 278.27 625.978 277.152 625.978 275.786ZM632.787 274.398C632.787 272.269 631.766 271.217 630.518 272.061C629.269 272.906 628.248 274.648 628.248 275.933C628.248 277.218 629.269 278.27 630.518 278.27C631.766 278.27 632.787 276.528 632.787 274.398ZM641.867 273.157C641.867 271.871 640.845 270.82 639.597 270.82C638.349 270.82 637.327 272.562 637.327 274.691C637.327 276.821 638.349 277.872 639.597 277.028C640.845 276.184 641.867 274.442 641.867 273.157ZM861.14 271.492C858.833 268.968 856.929 272.768 858.822 276.12C860.253 278.651 860.787 278.653 861.556 276.13C862.081 274.405 861.895 272.318 861.14 271.493V271.492ZM871.118 275.933C871.118 274.648 870.097 272.906 868.848 272.061C867.6 271.217 866.578 272.269 866.578 274.398C866.578 276.528 867.6 278.27 868.848 278.27C870.097 278.27 871.118 277.218 871.118 275.933ZM879.062 275.786C879.834 274.421 878.873 273.303 876.927 273.303C874.98 273.303 873.388 274.421 873.388 275.786C873.388 277.152 874.349 278.27 875.524 278.27C876.699 278.27 878.291 277.152 879.062 275.786ZM887.007 275.786C887.007 274.421 885.985 273.303 884.737 273.303C883.489 273.303 882.467 274.421 882.467 275.786C882.467 277.152 883.489 278.27 884.737 278.27C885.985 278.27 887.007 277.152 887.007 275.786ZM896.086 275.786C896.086 274.421 894.554 273.303 892.681 273.303C890.809 273.303 889.277 274.421 889.277 275.786C889.277 277.152 890.809 278.27 892.681 278.27C894.554 278.27 896.086 277.152 896.086 275.786ZM902.896 275.786C902.896 274.421 901.874 273.303 900.626 273.303C899.377 273.303 898.356 274.421 898.356 275.786C898.356 277.152 899.377 278.27 900.626 278.27C901.874 278.27 902.896 277.152 902.896 275.786ZM911.975 275.786C911.975 274.421 910.953 273.303 909.705 273.303C908.457 273.303 907.435 274.421 907.435 275.786C907.435 277.152 908.457 278.27 909.705 278.27C910.953 278.27 911.975 277.152 911.975 275.786ZM1182.08 276.076C1182.08 274.87 1180.04 273.298 1177.54 272.584C1174.59 271.739 1173 272.507 1173 274.777C1173 276.698 1175.05 278.27 1177.54 278.27C1180.04 278.27 1182.08 277.283 1182.08 276.076ZM650.946 273.303C650.946 271.937 649.985 270.82 648.81 270.82C647.635 270.82 646.043 271.937 645.271 273.303C644.5 274.669 645.46 275.786 647.407 275.786C649.353 275.786 650.946 274.669 650.946 273.303ZM657.755 273.303C657.755 271.937 656.734 270.82 655.486 270.82C654.237 270.82 653.216 271.937 653.216 273.303C653.216 274.669 654.237 275.786 655.486 275.786C656.734 275.786 657.755 274.669 657.755 273.303ZM666.835 273.303C666.835 271.937 665.813 270.82 664.565 270.82C663.316 270.82 662.295 271.937 662.295 273.303C662.295 274.669 663.316 275.786 664.565 275.786C665.813 275.786 666.835 274.669 666.835 273.303ZM675.914 273.303C675.914 271.937 674.892 270.82 673.644 270.82C672.396 270.82 671.374 271.937 671.374 273.303C671.374 274.669 672.396 275.786 673.644 275.786C674.892 275.786 675.914 274.669 675.914 273.303ZM684.993 273.303C684.993 271.937 683.461 270.82 681.588 270.82C679.716 270.82 678.184 271.937 678.184 273.303C678.184 274.669 679.716 275.786 681.588 275.786C683.461 275.786 684.993 274.669 684.993 273.303ZM694.072 273.303C694.072 271.937 692.54 270.82 690.667 270.82C688.795 270.82 687.263 271.937 687.263 273.303C687.263 274.669 688.795 275.786 690.667 275.786C692.54 275.786 694.072 274.669 694.072 273.303ZM700.882 273.303C700.882 271.937 699.86 270.82 698.612 270.82C697.364 270.82 696.342 271.937 696.342 273.303C696.342 274.669 697.364 275.786 698.612 275.786C699.86 275.786 700.882 274.669 700.882 273.303ZM709.961 272.062C709.961 270.013 708.94 268.337 707.691 268.337C706.443 268.337 705.422 270.013 705.422 272.062C705.422 274.11 706.443 275.786 707.691 275.786C708.94 275.786 709.961 274.11 709.961 272.062ZM719.04 272.062C719.04 270.013 718.019 268.337 716.771 268.337C715.522 268.337 714.501 270.013 714.501 272.062C714.501 274.11 715.522 275.786 716.771 275.786C718.019 275.786 719.04 274.11 719.04 272.062ZM728.12 272.062C728.12 270.013 727.098 268.337 725.85 268.337C724.602 268.337 723.58 270.013 723.58 272.062C723.58 274.11 724.602 275.786 725.85 275.786C727.098 275.786 728.12 274.11 728.12 272.062ZM736.3 269.009C733.993 266.485 732.089 270.285 733.982 273.636C735.413 276.168 735.947 276.17 736.716 273.647C737.242 271.922 737.055 269.835 736.3 269.01V269.009ZM766.707 270.673C766.707 269.388 765.685 268.337 764.437 268.337C763.188 268.337 762.167 270.079 762.167 272.208C762.167 274.337 763.188 275.389 764.437 274.545C765.685 273.701 766.707 271.958 766.707 270.673ZM775.786 272.062C775.786 270.013 774.764 268.337 773.516 268.337C772.268 268.337 771.246 270.013 771.246 272.062C771.246 274.11 772.268 275.786 773.516 275.786C774.764 275.786 775.786 274.11 775.786 272.062ZM784.865 272.062C784.865 270.013 783.844 268.337 782.595 268.337C781.347 268.337 780.325 270.013 780.325 272.062C780.325 274.11 781.347 275.786 782.595 275.786C783.844 275.786 784.865 274.11 784.865 272.062ZM793.944 272.062C793.944 270.013 792.923 268.337 791.674 268.337C790.426 268.337 789.405 270.013 789.405 272.062C789.405 274.11 790.426 275.786 791.674 275.786C792.923 275.786 793.944 274.11 793.944 272.062ZM803.024 273.303C803.024 271.937 802.002 270.82 800.754 270.82C799.505 270.82 798.484 271.937 798.484 273.303C798.484 274.669 799.505 275.786 800.754 275.786C802.002 275.786 803.024 274.669 803.024 273.303ZM812.103 273.303C812.103 271.937 810.571 270.82 808.698 270.82C806.825 270.82 805.293 271.937 805.293 273.303C805.293 274.669 806.825 275.786 808.698 275.786C810.571 275.786 812.103 274.669 812.103 273.303ZM821.182 273.303C821.182 271.937 819.65 270.82 817.777 270.82C815.905 270.82 814.373 271.937 814.373 273.303C814.373 274.669 815.905 275.786 817.777 275.786C819.65 275.786 821.182 274.669 821.182 273.303ZM827.992 273.303C827.992 271.937 826.97 270.82 825.722 270.82C824.473 270.82 823.452 271.937 823.452 273.303C823.452 274.669 824.473 275.786 825.722 275.786C826.97 275.786 827.992 274.669 827.992 273.303ZM837.071 273.303C837.071 271.937 836.049 270.82 834.801 270.82C833.553 270.82 832.531 271.937 832.531 273.303C832.531 274.669 833.553 275.786 834.801 275.786C836.049 275.786 837.071 274.669 837.071 273.303ZM846.15 273.303C846.15 271.937 845.129 270.82 843.88 270.82C842.632 270.82 841.61 271.937 841.61 273.303C841.61 274.669 842.632 275.786 843.88 275.786C845.129 275.786 846.15 274.669 846.15 273.303ZM852.96 273.303C852.96 271.937 851.938 270.82 850.69 270.82C849.441 270.82 848.42 271.937 848.42 273.303C848.42 274.669 849.441 275.786 850.69 275.786C851.938 275.786 852.96 274.669 852.96 273.303ZM350.195 270.82C350.967 269.454 349.495 268.337 346.924 268.337C344.354 268.337 342.251 269.454 342.251 270.82C342.251 272.186 343.723 273.303 345.522 273.303C347.32 273.303 349.424 272.186 350.195 270.82ZM746.278 270.82C746.278 269.454 745.257 268.337 744.008 268.337C742.76 268.337 741.739 269.454 741.739 270.82C741.739 272.186 742.76 273.303 744.008 273.303C745.257 273.303 746.278 272.186 746.278 270.82ZM757.627 270.82C757.627 269.454 756.606 268.337 755.357 268.337C754.109 268.337 753.088 269.454 753.088 270.82C753.088 272.186 754.109 273.303 755.357 273.303C756.606 273.303 757.627 272.186 757.627 270.82ZM1157.11 270.82C1157.11 269.454 1155.01 268.337 1152.44 268.337C1149.87 268.337 1148.4 269.454 1149.17 270.82C1149.94 272.186 1152.05 273.303 1153.84 273.303C1155.64 273.303 1157.11 272.186 1157.11 270.82ZM376.298 265.853C376.298 264.487 374.255 263.37 371.759 263.37C369.262 263.37 367.219 264.487 367.219 265.853C367.219 267.219 369.262 268.337 371.759 268.337C374.255 268.337 376.298 267.219 376.298 265.853ZM1132.15 265.853C1132.15 264.487 1130.1 263.37 1127.61 263.37C1125.11 263.37 1123.07 264.487 1123.07 265.853C1123.07 267.219 1125.11 268.337 1127.61 268.337C1130.1 268.337 1132.15 267.219 1132.15 265.853ZM405.806 260.887C405.806 259.521 403.823 258.403 401.4 258.403C398.977 258.403 396.363 259.521 395.592 260.887C394.796 262.295 396.703 263.37 399.997 263.37C403.192 263.37 405.806 262.253 405.806 260.887ZM1103.77 260.887C1103 259.521 1100.39 258.403 1097.97 258.403C1095.54 258.403 1093.56 259.521 1093.56 260.887C1093.56 262.253 1096.17 263.37 1099.37 263.37C1102.66 263.37 1104.57 262.295 1103.77 260.887ZM437.583 255.631C437.583 254.424 435.03 253.437 431.908 253.437C428.635 253.437 426.234 254.867 426.234 256.817C426.234 259.084 428.103 259.807 431.908 259.011C435.03 258.358 437.583 256.837 437.583 255.631ZM1073.13 257.162C1073.13 255.092 1071.11 253.437 1068.59 253.437C1063 253.437 1062.59 257.62 1068.02 259.175C1070.21 259.799 1072.25 260.44 1072.56 260.599C1072.88 260.757 1073.13 259.21 1073.13 257.162ZM468.794 251.574C469.348 249.754 467.784 248.47 465.01 248.47C462.222 248.47 460.281 250.074 460.281 252.377C460.281 256.941 467.364 256.273 468.794 251.574ZM1039.29 252.195C1039.27 250.829 1037.18 249.355 1034.63 248.918C1030.07 248.136 1028.49 250.955 1031.6 254.35C1033.8 256.765 1039.33 255.218 1039.29 252.195ZM505.678 247.573C505.678 245.306 503.808 244.583 500.003 245.379C496.882 246.032 494.329 247.553 494.329 248.76C494.329 249.966 496.882 250.953 500.003 250.953C503.277 250.953 505.678 249.523 505.678 247.573ZM1005.04 248.47C1005.04 247.104 1004.1 245.987 1002.95 245.987C1001.81 245.987 999.253 245.309 997.278 244.48C994.922 243.49 993.688 244.344 993.688 246.963C993.688 249.564 995.664 250.953 999.362 250.953C1002.48 250.953 1005.04 249.836 1005.04 248.47ZM545.978 244.124C546.564 242.178 544.725 241.02 541.049 241.02C537.234 241.02 535.185 242.382 535.185 244.918C535.185 249.588 544.541 248.9 545.978 244.124ZM964.181 244.745C964.181 242.427 962.037 241.02 958.506 241.02C952.995 241.02 951.259 243.438 954.345 246.815C957.2 249.939 964.181 248.47 964.181 244.745ZM589.661 241.02C589.661 239.654 587.107 238.537 583.986 238.537C580.865 238.537 578.312 239.654 578.312 241.02C578.312 242.386 580.865 243.504 583.986 243.504C587.107 243.504 589.661 242.386 589.661 241.02ZM639.597 238.247C639.597 237.041 636.533 236.054 632.787 236.054C626.527 236.054 624.228 238.278 627.166 241.493C628.995 243.494 639.597 240.726 639.597 238.247ZM873.388 238.39C873.388 237.105 870.324 236.054 866.578 236.054C858.655 236.054 857.368 240.242 864.876 241.596C870.793 242.663 873.388 241.685 873.388 238.39V238.39ZM921.054 241.02C921.054 239.654 918.5 238.537 915.379 238.537C912.258 238.537 909.705 239.654 909.705 241.02C909.705 242.386 912.258 243.504 915.379 243.504C918.5 243.504 921.054 242.386 921.054 241.02ZM693.519 236.674C694.129 234.642 692.034 233.57 687.452 233.57C682.612 233.57 680.454 234.77 680.454 237.46C680.454 242.193 692.073 241.494 693.519 236.674ZM748.548 237.295C748.548 235.226 746.53 233.57 744.008 233.57C741.486 233.57 739.469 235.226 739.469 237.295C739.469 239.365 741.486 241.02 744.008 241.02C746.53 241.02 748.548 239.365 748.548 237.295ZM759.897 237.295C759.897 235.247 758.365 233.57 756.492 233.57C754.62 233.57 753.088 235.247 753.088 237.295C753.088 239.344 754.62 241.02 756.492 241.02C758.365 241.02 759.897 239.344 759.897 237.295ZM818.912 237.295C818.912 234.812 816.643 233.57 812.103 233.57C805.595 233.57 803.553 235.805 806.807 239.365C809.778 242.615 818.912 241.054 818.912 237.295ZM720.402 169.998C719.304 166.865 718.211 166.436 716.395 168.422C715.021 169.925 714.578 173.092 715.409 175.461C716.507 178.594 717.6 179.023 719.416 177.037C720.789 175.534 721.233 172.367 720.402 169.998ZM734.929 171.488C734.929 165.693 733.92 164.038 730.389 164.038C726.859 164.038 725.85 165.693 725.85 171.488C725.85 177.282 726.859 178.938 730.389 178.938C733.92 178.938 734.929 177.282 734.929 171.488ZM748.124 169.434C748.65 163.612 747.909 161.555 745.287 161.555C742.729 161.555 741.739 164.039 741.739 170.453C741.739 181.673 747.097 180.818 748.124 169.434ZM757.627 170.246C757.627 165.466 756.606 161.555 755.357 161.555C754.109 161.555 753.088 165.466 753.088 170.246C753.088 175.027 754.109 178.938 755.357 178.938C756.606 178.938 757.627 175.027 757.627 170.246ZM773.516 171.306C773.516 165.535 772.599 163.87 769.758 164.477C766.061 165.267 763.626 173.011 765.842 176.933C768.728 182.042 773.516 178.53 773.516 171.306ZM784.865 174.118C784.865 171.467 783.844 168.607 782.595 167.763C781.308 166.892 780.325 168.979 780.325 172.583C780.325 176.078 781.347 178.938 782.595 178.938C783.844 178.938 784.865 176.769 784.865 174.118ZM1291.03 283.236C1289.16 281.912 1288.65 280.829 1289.9 280.829C1291.15 280.829 1293.7 281.912 1295.57 283.236C1297.45 284.56 1297.96 285.644 1296.71 285.644C1295.46 285.644 1292.91 284.56 1291.03 283.236Z" fill="white"/>
<path fill-rule="evenodd" clip-rule="evenodd" d="M752.983 58.207C754.037 51.7339 754.298 45.2609 752.959 38.7878C766.661 41.2665 787.565 34.1537 790.322 51.2106C806.132 42.9791 824.024 44.2451 824.005 47.5119L824.044 66.0465C811.857 59.4118 799.542 65.2261 787.713 67.5834C780.431 54.3836 763.439 57.9851 752.975 58.2079L752.983 58.207Z" fill="#409F11"/>
<path fill-rule="evenodd" clip-rule="evenodd" d="M752.983 38.6611C754.037 32.188 754.298 25.715 752.959 19.2419C766.661 21.7206 787.565 14.6078 790.322 31.6647C806.136 21.999 823.931 25.7203 824 27.8241L824.099 47.4216C824.489 45.031 804.611 43.1457 790.304 51.3034C787.805 33.4455 761.774 41.9573 752.965 38.8172L752.983 38.6611Z" fill="white"/>
<path fill-rule="evenodd" clip-rule="evenodd" d="M752.983 19.4191C754.037 12.9461 754.298 6.47306 752.959 0C766.661 2.47869 788.624 -4.63415 791.381 12.4227C805.69 6.42477 823.778 8.61052 824.01 9.24723V28.0547C824.035 23.5919 794.227 27.4866 790.165 31.8915C788.028 14.6357 765.329 21.515 752.973 19.42L752.983 19.4191Z" fill="#DB861C"/>
<path d="M788.534 41.7851C790.713 41.7851 792.479 39.853 792.479 37.4697C792.479 35.0864 790.713 33.1543 788.534 33.1543C786.356 33.1543 784.59 35.0864 784.59 37.4697C784.59 39.853 786.356 41.7851 788.534 41.7851Z" fill="#000088"/>
<path d="M788.539 41.2385C790.445 41.2385 791.99 39.5479 791.99 37.4625C791.99 35.3771 790.445 33.6865 788.539 33.6865C786.633 33.6865 785.088 35.3771 785.088 37.4625C785.088 39.5479 786.633 41.2385 788.539 41.2385Z" fill="white"/>
<path d="M788.528 38.2243C788.907 38.2243 789.214 37.8861 789.214 37.4691C789.214 37.052 788.907 36.7139 788.528 36.7139C788.149 36.7139 787.842 37.052 787.842 37.4691C787.842 37.8861 788.149 38.2243 788.528 38.2243Z" fill="#000088"/>
<path d="M791.941 38.1389C792.037 38.1526 792.124 38.0824 792.136 37.982C792.148 37.8815 792.08 37.789 791.985 37.7752C791.889 37.7614 791.802 37.8317 791.79 37.9321C791.778 38.0325 791.845 38.1251 791.941 38.1389Z" fill="#000088"/>
<path d="M788.539 41.2412L788.659 38.9756L788.539 37.8967L788.418 38.9756L788.539 41.2412Z" fill="#000088"/>
</svg>
